<svg xmlns="http://www.w3.org/2000/svg" xmlns:xlink="http://www.w3.org/1999/xlink" viewBox="0 0 128 128"><defs><filter id="b" width="101%" height="105.4%" x="-.5%" y="-1.4%"><feOffset dy="1" in="SourceAlpha" result="shadowOffsetOuter1"/><feColorMatrix in="shadowOffsetOuter1" values="0 0 0 0 0 0 0 0 0 0 0 0 0 0 0 0 0 0 0.5 0"/></filter><filter id="d" width="101.2%" height="119.6%" x="-.6%" y="-4.9%"><feOffset dy="1" in="SourceAlpha" result="shadowOffsetOuter1"/><feColorMatrix in="shadowOffsetOuter1" values="0 0 0 0 0 0 0 0 0 0 0 0 0 0 0 0 0 0 0.5 0"/></filter><filter id="f" width="101.2%" height="114.4%" x="-.6%" y="-3.6%"><feOffset dy="1" in="SourceAlpha" result="shadowOffsetOuter1"/><feColorMatrix in="shadowOffsetOuter1" values="0 0 0 0 0 0 0 0 0 0 0 0 0 0 0 0 0 0 0.5 0"/></filter><path id="c" d="M21.68 58.313c2.441 0 4.223-1.416 4.223-4.272v-2.295h1.368c2.343 0 3.564-1.44 3.564-3.467s-1.196-3.49-3.564-3.49h-1.368v-16.53c0-3.832-2.905-6.298-7.397-6.298-3.54 0-5.615 1.416-8.325 5.615-3.247 4.907-6.055 9.35-8.399 13.574C.537 43.348 0 45.032 0 46.741c0 2.979 2.197 5.005 5.42 5.005h12.012v2.295c0 2.856 1.782 4.272 4.248 4.272zm-4.004-13.208H7.496v-.244c2.856-5.493 5.76-10.01 10.009-16.162h.17zm31.006 13.526c9.326 0 15.088-7.08 15.088-18.58 0-11.572-5.811-18.432-15.088-18.432-9.253 0-15.113 6.885-15.113 18.457 0 11.524 5.786 18.555 15.113 18.555zm0-6.983c-3.711 0-6.006-3.881-6.006-11.596 0-7.666 2.295-11.45 6.006-11.45s5.981 3.76 5.981 11.474c0 7.69-2.246 11.572-5.981 11.572zm40.38 6.665c2.442 0 4.224-1.416 4.224-4.272v-2.295h1.367c2.344 0 3.565-1.44 3.565-3.467s-1.197-3.49-3.565-3.49h-1.367v-16.53c0-3.832-2.905-6.298-7.397-6.298-3.54 0-5.616 1.416-8.326 5.615-3.247 4.907-6.054 9.35-8.398 13.574-1.245 2.198-1.782 3.882-1.782 5.591 0 2.979 2.197 5.005 5.42 5.005h12.011v2.295c0 2.856 1.783 4.272 4.249 4.272zM85.06 45.105H74.878v-.244c2.856-5.493 5.762-10.01 10.01-16.162h.17z"/><path id="e" d="M13.542 77.62c.567 0 .937-.322.937-.855 0-.534-.376-.855-.937-.855H9.885v-2.488h3.48c.519 0 .86-.3.86-.793 0-.492-.348-.793-.86-.793h-3.48v-2.372h3.657c.56 0 .937-.321.937-.855s-.37-.854-.937-.854h-4.69c-.649 0-1.032.396-1.032 1.073v7.711c0 .684.383 1.08 1.033 1.08zm8.818.143c.602 0 1.04-.397 1.04-.944 0-.239-.048-.417-.22-.71l-1.421-2.462c1.087-.464 1.695-1.517 1.695-2.748 0-1.948-1.299-3.144-3.568-3.144h-3.008c-.65 0-1.032.396-1.032 1.073v7.861c0 .677.39 1.074 1.032 1.074.65 0 1.032-.397 1.032-1.074v-2.68h1.757l1.64 2.974c.336.602.561.78 1.053.78zm-2.672-5.25H17.91v-3.145h1.757c1.025 0 1.668.615 1.668 1.572 0 .978-.608 1.573-1.648 1.573zm11.634 5.25c.602 0 1.04-.397 1.04-.944 0-.239-.049-.417-.22-.71l-1.421-2.462c1.087-.464 1.695-1.517 1.695-2.748 0-1.948-1.299-3.144-3.568-3.144H25.84c-.65 0-1.032.396-1.032 1.073v7.861c0 .677.39 1.074 1.032 1.074.65 0 1.032-.397 1.032-1.074v-2.68h1.757l1.64 2.974c.335.602.561.78 1.053.78zm-2.673-5.25h-1.777v-3.145h1.757c1.025 0 1.668.615 1.668 1.572 0 .978-.609 1.573-1.648 1.573zm9.57 5.27c2.92 0 4.759-1.955 4.759-5.093 0-3.144-1.84-5.106-4.758-5.106-2.926 0-4.758 1.962-4.758 5.106 0 3.138 1.832 5.093 4.758 5.093zm0-1.722c-1.62 0-2.652-1.306-2.652-3.37 0-2.072 1.04-3.384 2.653-3.384s2.645 1.312 2.645 3.383c0 2.065-1.032 3.37-2.645 3.37zm12.6 1.702c.6 0 1.038-.397 1.038-.944 0-.239-.047-.417-.218-.71l-1.422-2.462c1.087-.464 1.695-1.517 1.695-2.748 0-1.948-1.299-3.144-3.568-3.144h-3.008c-.65 0-1.032.396-1.032 1.073v7.861c0 .677.39 1.074 1.032 1.074.65 0 1.032-.397 1.032-1.074v-2.68h1.757l1.64 2.974c.336.602.561.78 1.053.78zm-2.673-5.25h-1.778v-3.145h1.757c1.025 0 1.668.615 1.668 1.572 0 .978-.608 1.573-1.647 1.573zm8.92 5.236c.65 0 1.033-.396 1.033-1.073v-2.167h1.845c2.078 0 3.52-1.354 3.52-3.377 0-2.03-1.394-3.377-3.417-3.377h-2.98c-.65 0-1.033.396-1.033 1.073v7.848c0 .677.383 1.073 1.032 1.073zm2.427-4.853H58.1v-3.507H59.5c1.183 0 1.866.629 1.866 1.75 0 1.128-.69 1.757-1.873 1.757zm11.642 4.853c.601 0 1.032-.403 1.032-.97 0-.206-.034-.39-.13-.657L69.33 68.78c-.294-.806-.772-1.162-1.579-1.162-.78 0-1.265.37-1.552 1.17l-2.693 7.334a2.12 2.12 0 0 0-.137.656c0 .595.403.971 1.046.971.547 0 .855-.273 1.046-.93l.52-1.538h3.561l.52 1.559c.184.642.492.909 1.073.909zm-2.072-4.067h-2.631l1.278-4.04h.048zm8.32 4.101c2.782 0 4.375-1.688 4.375-4.197v-.15c0-.677-.383-1.074-1.032-1.074h-2.414c-.499 0-.827.28-.827.752s.335.752.828.752h1.435l-.007.157c-.04 1.224-.977 2.051-2.324 2.051-1.64 0-2.68-1.305-2.68-3.445 0-2.099.978-3.336 2.605-3.336.97 0 1.688.43 2.174 1.312.253.417.56.602.998.602.54 0 .902-.362.902-.889 0-.198-.034-.396-.15-.635-.554-1.21-2.037-2.099-3.931-2.099-2.898 0-4.703 1.914-4.703 5.072 0 3.206 1.805 5.127 4.75 5.127zm11.457-.164c.567 0 .936-.321.936-.854 0-.534-.376-.855-.936-.855h-3.657v-2.488h3.48c.519 0 .86-.3.86-.793 0-.492-.348-.793-.86-.793h-3.48v-2.372h3.657c.56 0 .936-.321.936-.855s-.369-.854-.936-.854h-4.69c-.649 0-1.032.396-1.032 1.073v7.711c0 .684.383 1.08 1.032 1.08z"/><path id="g" d="M14.348 13.851c2.607 0 4.861-1.29 5.64-3.228.14-.344.214-.696.214-1.03 0-1.049-.733-1.735-1.856-1.735-.825 0-1.299.325-1.698 1.169-.565 1.187-1.317 1.735-2.393 1.735-1.633 0-2.644-1.429-2.644-3.85 0-2.394 1.02-3.823 2.635-3.823 1.03 0 1.772.53 2.365 1.67.427.826.947 1.16 1.8 1.16 1.03 0 1.707-.65 1.707-1.651 0-.474-.139-.965-.408-1.43C18.652.975 16.76 0 14.2 0c-4.046 0-6.597 2.505-6.597 6.92 0 4.417 2.496 6.931 6.745 6.931zm13.517 0c3.534 0 5.9-1.948 5.9-5V2.06c0-1.318-.714-2.06-1.967-2.06s-1.966.742-1.966 2.06v6.355c0 1.41-.696 2.18-1.967 2.18s-1.967-.77-1.967-2.18V2.06C25.898.742 25.184 0 23.93 0c-1.252 0-1.967.742-1.967 2.06v6.79c0 3.053 2.366 5.001 5.9 5.001zm13.155 0c3.692 0 5.845-1.753 5.845-4.509 0-2.17-1.355-3.349-4.23-3.868l-1.346-.242c-1.336-.24-1.911-.528-1.911-1.131s.557-1.086 1.651-1.086c.845 0 1.466.25 1.902.919.473.714 1.002 1.002 1.837 1.002.983-.01 1.633-.613 1.633-1.503 0-.307-.056-.557-.167-.826C45.538.937 43.636 0 40.983 0 37.8 0 35.48 1.698 35.48 4.388c0 2.078 1.457 3.424 4.12 3.897l1.345.24c1.503.27 2.022.539 2.022 1.17 0 .659-.723 1.14-1.902 1.14-.88 0-1.66-.268-2.124-.927-.529-.742-1.03-.974-1.772-.974-.974 0-1.689.65-1.689 1.596 0 .306.065.621.205.928.575 1.308 2.319 2.393 5.334 2.393zm12.292 0c1.253 0 1.967-.742 1.967-2.06V3.369h1.976c1.04 0 1.735-.566 1.735-1.568 0-1.002-.677-1.568-1.735-1.568H49.37c-1.058 0-1.735.566-1.735 1.568 0 1.002.696 1.568 1.735 1.568h1.976v8.424c0 1.317.714 2.06 1.966 2.06zm12.608 0c4.138 0 6.745-2.644 6.745-6.92C72.665 2.652 70.058 0 65.92 0c-4.137 0-6.744 2.653-6.744 6.93 0 4.277 2.597 6.921 6.744 6.921zm0-3.136c-1.651 0-2.736-1.475-2.736-3.785 0-2.32 1.094-3.794 2.736-3.794 1.642 0 2.737 1.475 2.737 3.794 0 2.31-1.085 3.785-2.737 3.785zm21.71 3.136c1.094 0 1.716-.659 1.716-1.818V2.579C89.346.928 88.436 0 86.794 0c-1.382 0-2.115.547-2.671 2.004l-2.31 6.04h-.075l-2.32-6.04C78.863.547 78.13 0 76.749 0c-1.643 0-2.552.928-2.552 2.58v9.453c0 1.16.621 1.818 1.716 1.818s1.716-.659 1.716-1.818v-6.17h.075l2.662 6.708c.26.668.715.983 1.42.983.695 0 1.122-.306 1.391-.983l2.663-6.708h.074v6.17c0 1.16.622 1.818 1.716 1.818z"/><linearGradient id="a" x1="50%" x2="50%" y1="0%" y2="100%"><stop offset="0" stop-color="#5d959b"/><stop offset="1" stop-color="#255154"/></linearGradient></defs><g fill="none" fill-rule="evenodd"><path fill="url(#a)" d="M0 0h128v128H0z"/><g fill-rule="nonzero"><g transform="translate(15 25)"><use xlink:href="#c" fill="#000" filter="url(#b)"/><use xlink:href="#c" fill="#fff"/></g><g transform="translate(15 25)"><use xlink:href="#e" fill="#000" filter="url(#d)"/><use xlink:href="#e" fill="#fff"/></g><g transform="translate(15 25)"><use xlink:href="#g" fill="#000" filter="url(#f)"/><use xlink:href="#g" fill="#fff"/></g></g></g></svg>